<svg width="895" height="225" viewBox="0 0 895 225" fill="none" xmlns="http://www.w3.org/2000/svg">
<path d="M241.948 175.812L309.448 53.3809L376.069 175.812H349.086L338.628 155.861H279.653L269.018 175.812H241.948ZM291.342 134.24H327.29L309.448 100.227L291.342 134.24ZM384.946 175.812V56.9844H408.325V103.83H442.514V56.9844H465.893V175.812H442.514V125.451H408.325V175.812H384.946ZM474.858 175.812L542.358 53.3809L608.979 175.812H581.997L571.538 155.861H512.562L501.927 175.812H474.858ZM524.252 134.24H560.2L542.358 100.227L524.252 134.24ZM609.242 140.216C606.019 132.658 604.409 124.718 604.409 116.398C604.409 108.078 606.019 100.139 609.242 92.5801C612.464 85.0215 616.8 78.5176 622.25 73.0684C627.699 67.6191 634.204 63.2832 641.762 60.0605C649.321 56.8379 657.26 55.2266 665.581 55.2266C673.198 55.2266 680.844 56.6914 688.52 59.6211C696.196 62.5508 703.256 67.3262 709.702 73.9473L693.002 89.416C685.561 81.623 676.42 77.7266 665.581 77.7266C654.917 77.7266 645.951 81.4766 638.685 88.9766C631.419 96.4766 627.788 105.617 627.788 116.398C627.788 127.179 631.419 136.32 638.685 143.82C645.951 151.32 654.917 155.07 665.581 155.07C676.42 155.07 685.561 151.173 693.002 143.38L709.702 158.849C703.256 165.47 696.196 170.246 688.52 173.175C680.844 176.105 673.198 177.57 665.581 177.57C657.26 177.57 649.321 175.958 641.762 172.736C634.204 169.513 627.699 165.177 622.25 159.728C616.8 154.279 612.464 147.775 609.242 140.216ZM723.325 175.812V56.9844H746.703V108.84L805.239 56.9844H835.825L773.51 112.091L800.492 139.953C810.863 150.675 825.043 156.037 843.031 156.037V177.57C837.992 177.57 833.656 177.453 830.023 177.218C826.449 176.984 822.436 176.457 817.983 175.636C813.53 174.816 809.516 173.644 805.942 172.121C802.368 170.597 798.588 168.488 794.604 165.792C790.678 163.097 786.899 159.845 783.266 156.037L755.932 127.736L746.703 135.822V175.812H723.325Z" fill="white"/>
<path d="M53 175.812V56.9839H76.379V175.812H53ZM90.7935 78.605V56.9839H169.982V78.605H142.122V175.812H118.654V78.605H90.7935Z" fill="white"/>
<path fill-rule="evenodd" clip-rule="evenodd" d="M163.463 132.391L239.541 11C239.541 11 235.231 23.2109 230.397 38.3778C222.876 61.9705 213.944 92.849 218.274 95.7779C222.603 98.7068 232.234 103.223 248.219 97.2509L163.463 132.391Z" fill="url(#paint0_linear_23_21)"/>
<path d="M237.395 16.7007C234.952 23.4375 232.965 29.6467 231.36 35.3561C233.324 29.3493 235.363 23.1019 237.395 16.7007Z" fill="url(#paint1_linear_23_21)"/>
<path d="M227.852 91.3598C216.695 89.2575 219.919 76.0557 231.361 35.356C222.421 62.6983 215.034 85.0566 216.96 94.2563C220.946 105.864 240.353 102.596 271.691 87.2767L259.701 90.2127C259.701 90.2127 239.009 93.4622 227.852 91.3598Z" fill="url(#paint2_linear_23_21)"/>
<path fill-rule="evenodd" clip-rule="evenodd" d="M272.254 90.7456L196.177 212.137C196.177 212.137 200.486 199.926 205.321 184.759C212.841 161.166 221.773 130.288 217.444 127.359C213.114 124.43 203.483 119.914 187.498 125.886L272.254 90.7456Z" fill="url(#paint3_linear_23_21)"/>
<path d="M198.333 206.755C200.774 199.956 202.759 193.69 204.363 187.927C202.401 193.99 200.363 200.295 198.333 206.755Z" fill="url(#paint4_linear_23_21)"/>
<path d="M207.852 131.402C219.01 133.528 215.791 146.852 204.362 187.927C213.293 160.333 220.673 137.768 218.743 128.482C214.754 116.765 195.347 120.057 164.013 135.509L176.003 132.549C176.003 132.549 196.694 129.276 207.852 131.402Z" fill="url(#paint5_linear_23_21)"/>
<defs>
<linearGradient id="paint0_linear_23_21" x1="232.569" y1="12.4996" x2="182.76" y2="135.148" gradientUnits="userSpaceOnUse">
<stop offset="0.055" stop-color="#803131"/>
<stop offset="0.6" stop-color="#FF0A0A"/>
</linearGradient>
<linearGradient id="paint1_linear_23_21" x1="215.097" y1="42.5705" x2="248.905" y2="110.811" gradientUnits="userSpaceOnUse">
<stop offset="0.32" stop-color="#600202"/>
<stop offset="0.575" stop-color="#FF0A00"/>
<stop offset="0.865"/>
</linearGradient>
<linearGradient id="paint2_linear_23_21" x1="215.098" y1="42.5704" x2="248.906" y2="110.811" gradientUnits="userSpaceOnUse">
<stop offset="0.32" stop-color="#600202"/>
<stop offset="0.575" stop-color="#FF0A00"/>
<stop offset="0.865"/>
</linearGradient>
<linearGradient id="paint3_linear_23_21" x1="203.149" y1="210.637" x2="252.957" y2="87.9894" gradientUnits="userSpaceOnUse">
<stop offset="0.055" stop-color="#803131"/>
<stop offset="0.6" stop-color="#FF0A0A"/>
</linearGradient>
<linearGradient id="paint4_linear_23_21" x1="220.623" y1="180.651" x2="186.314" y2="112.001" gradientUnits="userSpaceOnUse">
<stop offset="0.32" stop-color="#600202"/>
<stop offset="0.575" stop-color="#FF0A00"/>
<stop offset="0.865"/>
</linearGradient>
<linearGradient id="paint5_linear_23_21" x1="220.622" y1="180.651" x2="186.313" y2="112.001" gradientUnits="userSpaceOnUse">
<stop offset="0.32" stop-color="#600202"/>
<stop offset="0.575" stop-color="#FF0A00"/>
<stop offset="0.865"/>
</linearGradient>
</defs>
</svg>
