<svg width="700" height="700" viewBox="0 0 700 700" fill="none" xmlns="http://www.w3.org/2000/svg">
<g clip-path="url(#clip0_80_3)">
<path fill-rule="evenodd" clip-rule="evenodd" d="M187.221 396.331L412.637 44.8603C412.637 44.8603 399.31 80.5842 384.207 125.013C360.714 194.124 332.51 284.677 344.311 293.837C356.112 302.998 382.57 317.448 427.893 301.508L187.221 396.331Z" fill="#EA2121"/>
<path d="M406.041 61.5231C398.505 81.2247 392.302 99.4126 387.217 116.161C393.336 98.5706 399.691 80.2753 406.041 61.5231Z" fill="#600202"/>
<path d="M371.553 281.797C340.576 274.333 350.968 235.552 387.217 116.161C359.361 196.231 336.368 261.697 340.793 289.182C350.726 324.032 405.336 316.484 494.566 274.528L460.732 281.91C460.732 281.91 402.53 289.26 371.553 281.797Z" fill="#600202"/>
<path fill-rule="evenodd" clip-rule="evenodd" d="M495.779 284.874L270.363 636.345C270.363 636.345 283.69 600.621 298.793 556.192C322.286 487.082 350.489 396.528 338.689 387.368C326.888 378.208 300.43 363.757 255.107 379.698L495.779 284.874Z" fill="#EB2121"/>
<path d="M276.958 620.628C284.494 600.742 290.698 582.384 295.783 565.479C289.663 583.234 283.308 601.7 276.958 620.628Z" fill="#600202"/>
<path d="M311.448 398.296C342.426 405.828 332.033 444.972 295.783 565.479C323.64 484.661 346.633 418.583 342.209 390.841C332.276 355.665 277.666 363.284 188.435 405.633L222.27 398.183C222.27 398.183 280.471 390.763 311.448 398.296Z" fill="#600202"/>
<path d="M544.591 167.375C551.331 167.375 556.427 170.252 559.879 176.005L618.812 279.077C622.264 284.666 622.264 290.502 618.812 296.584L559.879 405.82C556.427 411.902 551.331 414.943 544.591 414.943H496.754C494.452 414.943 492.726 413.957 491.576 411.984C490.425 409.847 490.425 407.792 491.576 405.82L555.687 287.46L491.576 176.005C490.425 174.361 490.425 172.553 491.576 170.581C492.726 168.444 494.452 167.375 496.754 167.375H544.591Z" fill="#EA2121"/>
<path d="M61.5757 407.584C58.1235 401.502 58.1235 395.666 61.5757 390.077L120.755 287.005C124.208 281.252 129.221 278.375 135.797 278.375H183.88C186.017 278.375 187.661 279.361 188.812 281.334C189.963 283.307 189.963 285.197 188.812 287.005L124.701 398.46L188.812 516.82C189.963 518.792 189.963 520.847 188.812 522.984C187.826 524.957 186.182 525.943 183.88 525.943H135.797C129.221 525.943 124.208 522.902 120.755 516.82L61.5757 407.584Z" fill="#EA2121"/>
</g>
<defs>
<clipPath id="clip0_80_3">
<rect width="700" height="700" fill="white"/>
</clipPath>
</defs>
</svg>
